<?xml version="1.0" encoding="iso-8859-1"?>
<!-- Generator: Adobe Illustrator 19.0.0, SVG Export Plug-In . SVG Version: 6.00 Build 0)  -->
<svg version="1.1" id="Layer_1" xmlns="http://www.w3.org/2000/svg" xmlns:xlink="http://www.w3.org/1999/xlink" x="0px" y="0px"
	 viewBox="0 0 512 512" style="enable-background:new 0 0 512 512;" xml:space="preserve">
<path style="fill:#7DE5EF;" d="M193.618,36.621v184.434h-28.546h-48.025H88.5V36.621C88.5,20.538,101.356,7.5,117.214,7.5h47.689
	C180.762,7.5,193.618,20.538,193.618,36.621z"/>
<path style="fill:#B7B7B7;" d="M423.5,56.035v438.758c0,5.361-4.285,9.707-9.571,9.707h-268c-5.286,0-9.571-4.346-9.571-9.707
	V56.035c0-5.361,4.285-9.707,9.571-9.707h268C419.215,46.328,423.5,50.674,423.5,56.035z"/>
<path style="fill:#A0A0A0;" d="M423.5,56.035v438.758c0,5.361-4.285,9.707-9.571,9.707h-5.91V46.328h5.91
	C419.215,46.328,423.5,50.674,423.5,56.035z"/>
<path style="fill:#D5F7F4;" d="M394.786,36.621v417.402H165.072V51.829v-0.001V36.621c0-16.083-12.856-29.121-28.714-29.121H242.34
	h73.091h50.642C381.93,7.5,394.786,20.538,394.786,36.621z"/>
<path style="fill:#7DE5EF;" d="M394.786,36.621v417.402H379.95V36.621c0-16.083-12.856-29.121-28.714-29.121h14.836
	C381.93,7.5,394.786,20.538,394.786,36.621z"/>
<path style="fill:#FFFFFF;" d="M165.072,396.105h229.714v57.918H165.072V396.105z M165.072,165.725v116.484h229.714V165.725H165.072
	z"/>
<path style="fill:#F4F4F4;" d="M394.786,165.725v116.484H379.95V165.725H394.786z M379.95,454.023h14.836v-57.918H379.95V454.023z"
	/>
<path style="fill:#FF9C97;" d="M219.15,125.926c-9.515,0-17.229-7.823-17.229-17.473s7.713-17.473,17.229-17.473
	c9.515,0,17.229,7.823,17.229,17.473S228.665,125.926,219.15,125.926z"/>
<path style="fill:#FF7C6F;" d="M236.379,108.453c0,9.65-7.714,17.473-17.229,17.473c-2.66,0-5.169-0.629-7.418-1.721
	c5.797-2.814,9.811-8.8,9.811-15.752c0-6.952-4.014-12.938-9.811-15.752c2.249-1.092,4.758-1.721,7.418-1.721
	C228.665,90.98,236.379,98.803,236.379,108.453z"/>
<path style="fill:#BF86F9;" d="M219.15,355c-9.515,0-17.229-7.823-17.229-17.473s7.713-17.473,17.229-17.473
	c9.515,0,17.229,7.823,17.229,17.473S228.665,355,219.15,355z"/>
<path style="fill:#B96DED;" d="M236.379,337.527c0,9.65-7.714,17.473-17.229,17.473c-2.66,0-5.169-0.629-7.418-1.721
	c5.797-2.814,9.811-8.8,9.811-15.752c0-6.952-4.014-12.938-9.811-15.752c2.249-1.092,4.758-1.721,7.418-1.721
	C228.665,320.055,236.379,327.878,236.379,337.527z"/>
<path style="fill:#8DDD64;" d="M219.15,240.948c-9.515,0-17.229-7.823-17.229-17.473s7.713-17.473,17.229-17.473
	c9.515,0,17.229,7.823,17.229,17.473S228.665,240.948,219.15,240.948z"/>
<path style="fill:#7CC464;" d="M236.379,223.476c0,9.65-7.714,17.473-17.229,17.473c-2.66,0-5.169-0.629-7.418-1.721
	c5.797-2.813,9.811-8.799,9.811-15.752s-4.014-12.939-9.811-15.752c2.249-1.092,4.758-1.721,7.418-1.721
	C228.665,206.003,236.379,213.826,236.379,223.476z"/>
<path style="fill:#F4F4F4;" d="M290.138,449.17L290.138,449.17c0,8.042-6.519,14.561-14.561,14.561h-5.017
	c-8.042,0-14.561-6.519-14.561-14.561l0,0c0-8.042,6.519-14.561,14.561-14.561h5.017
	C283.619,434.609,290.138,441.128,290.138,449.17z"/>
<path style="fill:#888E8D;" d="M303.857,449.17c0,8.042-6.428,14.561-14.357,14.561h-16.59c7.929,0,14.357-6.519,14.357-14.561
	s-6.428-14.561-14.357-14.561h16.59C297.429,434.609,303.857,441.128,303.857,449.17z"/>
<path d="M275,209.954c0-4.142,3.358-7.5,7.5-7.5h80c4.142,0,7.5,3.358,7.5,7.5s-3.358,7.5-7.5,7.5h-80
	C278.358,217.454,275,214.096,275,209.954z M282.5,360.008h45.714c4.142,0,7.5-3.358,7.5-7.5s-3.358-7.5-7.5-7.5H282.5
	c-4.142,0-7.5,3.358-7.5,7.5S278.358,360.008,282.5,360.008z M282.5,334.997h80c4.142,0,7.5-3.358,7.5-7.5s-3.358-7.5-7.5-7.5h-80
	c-4.142,0-7.5,3.358-7.5,7.5S278.358,334.997,282.5,334.997z M192,340.002c0-14.065,11.439-25.507,25.5-25.507
	s25.5,11.442,25.5,25.507s-11.439,25.507-25.5,25.507S192,354.067,192,340.002z M207,340.002c0,5.794,4.71,10.507,10.5,10.507
	s10.5-4.713,10.5-10.507s-4.71-10.507-10.5-10.507S207,334.208,207,340.002z M192,222.459c0-14.065,11.439-25.507,25.5-25.507
	s25.5,11.442,25.5,25.507s-11.439,25.508-25.5,25.508S192,236.524,192,222.459z M207,222.459c0,5.794,4.71,10.508,10.5,10.508
	s10.5-4.714,10.5-10.508s-4.71-10.507-10.5-10.507S207,216.665,207,222.459z M282.5,242.465h45.714c4.142,0,7.5-3.358,7.5-7.5
	s-3.358-7.5-7.5-7.5H282.5c-4.142,0-7.5,3.358-7.5,7.5S278.358,242.465,282.5,242.465z M112.5,219.964c0,4.142-3.358,7.5-7.5,7.5H81
	c-4.142,0-7.5-3.358-7.5-7.5V37.513C73.5,16.828,90.322,0,111,0h260c20.678,0,37.5,16.828,37.5,37.513v414.965
	c0,4.142-3.358,7.5-7.5,7.5h-61c-4.142,0-7.5-3.358-7.5-7.5s3.358-7.5,7.5-7.5h53.5v-37.117h-225v37.117h80.138
	c1.249-11.244,10.801-20.008,22.362-20.008h20c12.407,0,22.5,10.093,22.5,22.5c0,12.419-10.093,22.513-22.5,22.513h-20
	c-7.787,0-14.662-3.976-18.703-10.004H161c-4.142,0-7.5-3.358-7.5-7.5V37.513C153.5,25.099,143.407,15,131,15h-20
	c-12.407,0-22.5,10.099-22.5,22.513v174.951H105C109.142,212.464,112.5,215.822,112.5,219.964z M263.5,447.47
	c0,4.148,3.364,7.513,7.5,7.513h20c4.136,0,7.5-3.365,7.5-7.5c0-4.148-3.364-7.513-7.5-7.513h-20
	C266.864,439.97,263.5,443.334,263.5,447.47z M393.5,290.318h-225v102.543h225V290.318z M393.5,171.774h-225v103.544h225V171.774z
	 M160.979,15c4.72,6.274,7.521,14.073,7.521,22.513v119.261h225V37.513C393.5,25.099,383.407,15,371,15H160.979z M430.137,42.59
	c-3.532-2.163-8.149-1.057-10.314,2.475c-2.165,3.532-1.057,8.149,2.475,10.314c0.752,0.461,1.202,1.262,1.202,2.142v436.975
	c0,1.381-1.122,2.504-2.5,2.504H141c-1.378,0-2.5-1.124-2.5-2.504V57.521c0-1.195,0.81-2.038,1.612-2.344
	c3.871-1.474,5.813-5.807,4.339-9.678s-5.808-5.813-9.678-4.339c-6.743,2.568-11.273,9.143-11.273,16.361v436.975
	c0,9.652,7.851,17.504,17.5,17.504h280c9.649,0,17.5-7.853,17.5-17.504V57.521C438.5,51.382,435.374,45.8,430.137,42.59z
	 M192,103.916c0-14.065,11.439-25.508,25.5-25.508S243,89.851,243,103.916s-11.439,25.507-25.5,25.507S192,117.98,192,103.916z
	 M207,103.916c0,5.794,4.71,10.507,10.5,10.507s10.5-4.713,10.5-10.507s-4.71-10.508-10.5-10.508S207,98.122,207,103.916z
	 M271,55.017h20c4.142,0,7.5-3.358,7.5-7.5s-3.358-7.5-7.5-7.5h-20c-4.142,0-7.5,3.358-7.5,7.5S266.858,55.017,271,55.017z
	 M328.214,108.921H282.5c-4.142,0-7.5,3.358-7.5,7.5s3.358,7.5,7.5,7.5h45.714c4.142,0,7.5-3.358,7.5-7.5
	S332.356,108.921,328.214,108.921z M275,91.41c0,4.142,3.358,7.5,7.5,7.5h80c4.142,0,7.5-3.358,7.5-7.5s-3.358-7.5-7.5-7.5h-80
	C278.358,83.91,275,87.268,275,91.41z"/>
<g>
</g>
<g>
</g>
<g>
</g>
<g>
</g>
<g>
</g>
<g>
</g>
<g>
</g>
<g>
</g>
<g>
</g>
<g>
</g>
<g>
</g>
<g>
</g>
<g>
</g>
<g>
</g>
<g>
</g>
</svg>
